<svg width="100%" viewBox="0 0 1800 800" fill="#F0B247" xmlns="http://www.w3.org/2000/svg">
<g clip-path="url(#clip0_1970_55)">
<path fill-rule="evenodd" clip-rule="evenodd" d="M1799.83 -84.265C1799.85 -85.2481 1799.87 -86.2315 1799.88 -87.2154C1799.96 -92.1341 1800 -97.0624 1800 -102C1800 -106.938 1799.96 -111.866 1799.88 -116.785C1799.87 -117.768 1799.85 -118.752 1799.83 -119.735C1799.81 -120.719 1799.79 -121.702 1799.77 -122.685L1793.89 -122.59L1793.98 -116.69C1794.06 -111.802 1794.1 -106.906 1794.1 -102C1794.1 -97.0941 1794.06 -92.1975 1793.98 -87.3104L1793.89 -81.4096L1799.77 -81.3148C1799.79 -82.2978 1799.81 -83.2813 1799.83 -84.265ZM1799.2 -63.7163L1793.32 -64.0003L1793.04 -58.1056C1792.57 -48.3144 1791.94 -38.5646 1791.15 -28.8588L1790.67 -22.9764L1796.54 -22.5017C1796.62 -23.4813 1796.71 -24.4613 1796.79 -25.4418C1796.87 -26.4216 1796.95 -27.4018 1797.03 -28.3825C1797.82 -38.1519 1798.46 -47.9656 1798.93 -57.8207C1798.98 -58.8028 1799.03 -59.7853 1799.07 -60.7682C1799.12 -61.7505 1799.16 -62.7332 1799.2 -63.7163ZM1794.83 -4.9494L1788.98 -5.61476L1788.32 0.248995C1787.21 9.96355 1785.95 19.6307 1784.53 29.2479L1783.68 35.0867L1789.49 35.9428C1789.64 34.9708 1789.79 33.9984 1789.94 33.0255C1790.08 32.0532 1790.23 31.0802 1790.37 30.1068C1791.8 20.426 1793.07 10.695 1794.18 0.91652C1794.29 -0.0604829 1794.4 -1.03797 1794.51 -2.01593C1794.62 -2.99329 1794.72 -3.97108 1794.83 -4.9494ZM1786.64 53.3875L1780.85 52.3408L1779.8 58.1483C1778.06 67.7647 1776.17 77.3276 1774.12 86.8344L1772.88 92.6042L1778.63 93.8405C1778.84 92.8804 1779.06 91.9199 1779.27 90.9587C1779.48 89.9981 1779.68 89.0367 1779.89 88.0748C1781.95 78.5049 1783.85 68.8786 1785.6 59.1984C1785.78 58.2308 1785.95 57.2625 1786.12 56.2938C1786.3 55.3256 1786.47 54.3568 1786.64 53.3875ZM1774.64 111.029L1768.93 109.604L1767.5 115.33C1765.13 124.819 1762.61 134.247 1759.94 143.613L1758.32 149.288L1763.98 150.901C1764.26 149.957 1764.53 149.012 1764.8 148.067C1765.08 147.122 1765.35 146.177 1765.62 145.231C1768.31 135.803 1770.84 126.312 1773.23 116.76C1773.47 115.806 1773.7 114.851 1773.94 113.896C1774.17 112.941 1774.41 111.986 1774.64 111.029ZM1758.87 167.78L1753.27 165.982L1751.46 171.601C1748.48 180.903 1745.34 190.139 1742.06 199.306L1740.07 204.863L1745.61 206.845C1745.95 205.921 1746.28 204.997 1746.62 204.071C1746.95 203.147 1747.28 202.221 1747.62 201.295C1750.92 192.067 1754.07 182.769 1757.08 173.405C1757.38 172.469 1757.68 171.532 1757.98 170.594C1758.28 169.657 1758.57 168.719 1758.87 167.78ZM1739.38 223.375L1733.92 221.211L1731.74 226.699C1728.15 235.779 1724.42 244.786 1720.54 253.718L1718.19 259.131L1723.59 261.474C1723.98 260.574 1724.38 259.674 1724.77 258.772C1725.17 257.872 1725.56 256.97 1725.95 256.068C1729.86 247.077 1733.62 238.01 1737.23 228.87C1737.59 227.955 1737.95 227.04 1738.31 226.124C1738.67 225.208 1739.03 224.292 1739.38 223.375ZM1716.29 277.545L1710.98 275.027L1708.45 280.36C1704.27 289.187 1699.94 297.935 1695.48 306.601L1692.78 311.848L1698.01 314.54C1698.47 313.668 1698.92 312.796 1699.38 311.923C1699.83 311.05 1700.28 310.176 1700.73 309.301C1705.22 300.578 1709.57 291.772 1713.78 282.887C1714.2 281.998 1714.62 281.108 1715.04 280.218C1715.46 279.328 1715.88 278.437 1716.29 277.545ZM1689.68 330.095L1684.54 327.233L1681.67 332.389C1676.92 340.917 1672.04 349.359 1667.02 357.713L1663.98 362.772L1669.02 365.801C1669.54 364.961 1670.05 364.12 1670.56 363.278C1671.06 362.437 1671.57 361.595 1672.08 360.751C1677.13 352.343 1682.05 343.844 1686.83 335.26C1687.31 334.401 1687.78 333.541 1688.26 332.68C1688.74 331.819 1689.21 330.957 1689.68 330.095ZM1659.68 380.787L1654.74 377.595L1651.54 382.552C1646.25 390.75 1640.82 398.855 1635.26 406.865L1631.9 411.715L1636.74 415.066C1637.3 414.262 1637.87 413.456 1638.43 412.65C1638.99 411.843 1639.55 411.036 1640.11 410.228C1645.7 402.165 1651.17 394.006 1656.5 385.755C1657.03 384.929 1657.56 384.102 1658.1 383.274C1658.63 382.446 1659.16 381.617 1659.68 380.787ZM1626.44 429.403L1621.72 425.896L1618.2 430.633C1612.38 438.468 1606.44 446.204 1600.37 453.839L1596.7 458.459L1601.3 462.119C1601.92 461.353 1602.54 460.586 1603.15 459.818C1603.77 459.05 1604.38 458.281 1604.99 457.511C1611.1 449.826 1617.08 442.039 1622.94 434.152C1623.53 433.363 1624.11 432.572 1624.7 431.781C1625.28 430.989 1625.86 430.197 1626.44 429.403ZM1590.1 475.757L1585.61 471.949L1581.79 476.447C1575.48 483.883 1569.04 491.215 1562.49 498.439L1558.53 502.81L1562.89 506.762C1563.55 506.038 1564.22 505.312 1564.88 504.586C1565.54 503.86 1566.2 503.132 1566.86 502.403C1573.46 495.132 1579.94 487.752 1586.29 480.267C1586.93 479.518 1587.56 478.767 1588.2 478.015C1588.83 477.263 1589.47 476.511 1590.1 475.757ZM1550.82 519.644L1546.59 515.553L1542.48 519.793C1535.7 526.802 1528.8 533.7 1521.79 540.484L1517.55 544.589L1521.64 548.816C1522.36 548.136 1523.07 547.455 1523.77 546.774C1524.48 546.092 1525.19 545.409 1525.9 544.725C1532.95 537.896 1539.9 530.953 1546.72 523.898C1547.41 523.191 1548.09 522.484 1548.77 521.775C1549.46 521.066 1550.14 520.355 1550.82 519.644ZM1508.76 560.886L1504.81 556.528L1500.44 560.493C1493.22 567.044 1485.88 573.479 1478.45 579.794L1473.95 583.615L1477.76 588.098C1478.51 587.466 1479.26 586.833 1480.02 586.199C1480.77 585.565 1481.52 584.929 1482.27 584.293C1489.75 577.936 1497.13 571.459 1504.4 564.865C1505.13 564.204 1505.86 563.542 1506.59 562.879C1507.31 562.216 1508.04 561.551 1508.76 560.886ZM1464.12 599.303L1460.46 594.698L1455.84 598.37C1448.2 604.437 1440.47 610.382 1432.63 616.202L1427.9 619.722L1431.4 624.444C1432.2 623.862 1432.99 623.28 1433.78 622.696C1434.57 622.112 1435.36 621.526 1436.15 620.94C1444.04 615.082 1451.83 609.097 1459.51 602.99C1460.28 602.378 1461.05 601.765 1461.82 601.15C1462.59 600.536 1463.35 599.92 1464.12 599.303ZM1417.07 634.735L1413.71 629.901L1408.87 633.264C1400.85 638.818 1392.75 644.245 1384.55 649.541L1379.6 652.744L1382.79 657.685C1383.62 657.156 1384.45 656.627 1385.27 656.095C1386.1 655.564 1386.93 655.032 1387.76 654.498C1396.01 649.167 1404.17 643.705 1412.23 638.114C1413.04 637.554 1413.84 636.992 1414.65 636.429C1415.46 635.865 1416.26 635.301 1417.07 634.735ZM1367.8 667.024L1364.77 661.981L1359.71 665.02C1351.36 670.037 1342.92 674.922 1334.39 679.672L1329.23 682.543L1332.09 687.682C1332.96 687.209 1333.82 686.735 1334.68 686.259C1335.54 685.783 1336.4 685.306 1337.26 684.828C1345.84 680.047 1354.34 675.13 1362.75 670.079C1363.59 669.572 1364.44 669.065 1365.28 668.555C1366.12 668.046 1366.96 667.536 1367.8 667.024ZM1316.54 696.014L1313.85 690.784L1308.6 693.484C1299.94 697.944 1291.19 702.267 1282.36 706.449L1277.03 708.976L1279.55 714.292C1280.44 713.877 1281.33 713.46 1282.22 713.042C1283.11 712.624 1284 712.204 1284.89 711.783C1293.77 707.573 1302.58 703.221 1311.3 698.732C1312.18 698.282 1313.05 697.83 1313.92 697.377C1314.8 696.924 1315.67 696.469 1316.54 696.014ZM1263.47 721.586L1261.13 716.19L1255.72 718.54C1246.79 722.417 1237.78 726.153 1228.7 729.744L1223.21 731.915L1225.37 737.385C1226.29 737.029 1227.21 736.672 1228.12 736.313C1229.04 735.954 1229.96 735.594 1230.87 735.232C1240.01 731.617 1249.08 727.857 1258.07 723.954C1258.97 723.562 1259.87 723.169 1260.77 722.774C1261.67 722.379 1262.57 721.983 1263.47 721.586ZM1208.85 743.61L1206.86 738.071L1201.31 740.06C1192.14 743.34 1182.9 746.475 1173.6 749.462L1167.98 751.266L1169.78 756.867C1170.72 756.572 1171.66 756.276 1172.59 755.979C1173.53 755.681 1174.47 755.382 1175.41 755.081C1184.77 752.075 1194.07 748.919 1203.3 745.616C1204.22 745.285 1205.15 744.952 1206.07 744.618C1207 744.283 1207.92 743.947 1208.85 743.61ZM1152.9 761.981L1151.29 756.324L1145.61 757.942C1136.25 760.612 1126.82 763.133 1117.33 765.502L1111.6 766.932L1113.03 772.639C1113.99 772.407 1114.94 772.173 1115.9 771.938C1116.85 771.703 1117.81 771.466 1118.76 771.228C1128.31 768.843 1137.8 766.305 1147.23 763.618C1148.18 763.348 1149.12 763.077 1150.07 762.804C1151.01 762.531 1151.96 762.257 1152.9 761.981ZM1095.84 776.632L1094.6 770.881L1088.83 772.121C1079.33 774.165 1069.76 776.058 1060.15 777.797L1054.34 778.847L1055.39 784.635C1056.36 784.467 1057.33 784.297 1058.29 784.125C1059.26 783.953 1060.23 783.779 1061.2 783.604C1070.88 781.854 1080.51 779.949 1090.08 777.891C1091.04 777.684 1092 777.476 1092.96 777.266C1093.92 777.056 1094.88 776.845 1095.84 776.632ZM1037.94 787.495L1037.09 781.675L1031.25 782.534C1021.63 783.949 1011.96 785.21 1002.25 786.316L996.385 786.984L997.051 792.828C998.029 792.723 999.007 792.617 999.984 792.509C1000.96 792.401 1001.94 792.291 1002.92 792.18C1012.7 791.067 1022.43 789.797 1032.11 788.373C1033.08 788.23 1034.05 788.085 1035.03 787.939C1036 787.792 1036.97 787.644 1037.94 787.495ZM979.498 794.537L979.024 788.674L973.141 789.15C963.435 789.936 953.686 790.567 943.894 791.04L938 791.325L938.284 797.2C939.267 797.159 940.249 797.117 941.232 797.072C942.215 797.028 943.197 796.982 944.179 796.935C954.034 796.458 963.848 795.823 973.617 795.033C974.598 794.953 975.578 794.872 976.558 794.79C977.539 794.707 978.519 794.623 979.498 794.537ZM920.685 797.767L920.59 791.885L914.69 791.98C909.803 792.059 904.906 792.098 900 792.098C895.094 792.098 890.198 792.059 885.31 791.98L879.41 791.885L879.315 797.767C880.298 797.789 881.281 797.81 882.265 797.829C883.248 797.848 884.232 797.865 885.215 797.881C890.134 797.96 895.062 798 900 798C904.938 798 909.866 797.96 914.785 797.881C915.768 797.865 916.752 797.848 917.735 797.829C918.719 797.81 919.702 797.789 920.685 797.767ZM861.716 797.2L862 791.325L856.106 791.04C846.314 790.567 836.565 789.936 826.859 789.15L820.976 788.674L820.502 794.537C821.481 794.623 822.461 794.707 823.442 794.79C824.422 794.872 825.402 794.953 826.383 795.033C836.152 795.823 845.966 796.458 855.821 796.935C856.803 796.982 857.785 797.028 858.768 797.072C859.751 797.117 860.733 797.159 861.716 797.2ZM802.949 792.828L803.615 786.984L797.751 786.316C788.037 785.21 778.369 783.949 768.752 782.534L762.913 781.675L762.057 787.495C763.029 787.644 764.002 787.792 764.975 787.939C765.947 788.085 766.92 788.23 767.893 788.373C777.574 789.797 787.305 791.067 797.084 792.18C798.061 792.291 799.038 792.401 800.016 792.509C800.993 792.617 801.971 792.723 802.949 792.828ZM744.613 784.635L745.659 778.847L739.852 777.797C730.235 776.058 720.672 774.165 711.166 772.122L705.396 770.881L704.16 776.632C705.12 776.845 706.08 777.056 707.041 777.266C708.002 777.476 708.963 777.685 709.925 777.891C719.495 779.949 729.121 781.854 738.802 783.604C739.769 783.779 740.738 783.953 741.706 784.125C742.674 784.297 743.643 784.467 744.613 784.635ZM686.971 772.639L688.396 766.932L682.67 765.502C673.181 763.133 663.753 760.612 654.387 757.942L648.712 756.324L647.099 761.981C648.043 762.257 648.988 762.531 649.933 762.804C650.878 763.077 651.823 763.348 652.77 763.618C662.197 766.305 671.689 768.843 681.24 771.228C682.194 771.466 683.149 771.703 684.104 771.938C685.059 772.174 686.014 772.407 686.971 772.639ZM630.22 756.867L632.018 751.266L626.399 749.462C617.097 746.475 607.861 743.34 598.694 740.06L593.137 738.071L591.155 743.61C592.079 743.947 593.003 744.283 593.929 744.618C594.853 744.952 595.779 745.285 596.705 745.617C605.933 748.919 615.231 752.075 624.595 755.081C625.531 755.382 626.468 755.681 627.406 755.979C628.343 756.276 629.281 756.572 630.22 756.867ZM574.625 737.385L576.789 731.915L571.301 729.744C562.221 726.153 553.214 722.417 544.283 718.54L538.869 716.19L536.527 721.586C537.426 721.983 538.326 722.38 539.228 722.774C540.128 723.169 541.03 723.562 541.932 723.954C550.923 727.857 559.99 731.617 569.13 735.232C570.045 735.594 570.96 735.954 571.876 736.313C572.792 736.672 573.708 737.029 574.625 737.385ZM520.455 714.292L522.974 708.977L517.64 706.45C508.813 702.267 500.065 697.945 491.4 693.485L486.152 690.784L483.46 696.014C484.332 696.47 485.204 696.924 486.077 697.377C486.95 697.83 487.824 698.282 488.699 698.732C497.422 703.222 506.228 707.573 515.113 711.783C516.002 712.204 516.892 712.624 517.782 713.042C518.672 713.46 519.563 713.877 520.455 714.292ZM467.905 687.682L470.767 682.543L465.611 679.672C457.083 674.922 448.641 670.038 440.287 665.02L435.228 661.981L432.199 667.024C433.039 667.536 433.88 668.046 434.722 668.556C435.563 669.065 436.405 669.573 437.249 670.079C445.657 675.13 454.156 680.047 462.74 684.828C463.599 685.306 464.459 685.784 465.32 686.259C466.181 686.735 467.043 687.209 467.905 687.682ZM417.213 657.685L420.405 652.744L415.448 649.541C407.25 644.245 399.145 638.819 391.135 633.264L386.285 629.902L382.934 634.735C383.738 635.301 384.544 635.866 385.35 636.429C386.157 636.992 386.964 637.554 387.772 638.114C395.835 643.705 403.994 649.167 412.245 654.498C413.071 655.032 413.898 655.565 414.726 656.096C415.554 656.627 416.383 657.156 417.213 657.685ZM368.597 624.444L372.104 619.722L367.367 616.203C359.532 610.382 351.796 604.437 344.161 598.37L339.541 594.698L335.881 599.303C336.647 599.92 337.414 600.536 338.182 601.151C338.95 601.765 339.719 602.378 340.489 602.99C348.174 609.098 355.961 615.082 363.848 620.94C364.637 621.527 365.428 622.112 366.219 622.696C367.011 623.28 367.803 623.863 368.597 624.444ZM322.243 588.098L326.051 583.615L321.553 579.795C314.117 573.479 306.785 567.044 299.561 560.493L295.19 556.529L291.238 560.886C291.962 561.552 292.688 562.216 293.414 562.879C294.141 563.542 294.868 564.204 295.597 564.865C302.868 571.459 310.248 577.936 317.733 584.293C318.482 584.93 319.233 585.565 319.985 586.199C320.737 586.833 321.49 587.467 322.243 588.098ZM278.356 548.816L282.447 544.589L278.207 540.484C271.198 533.7 264.3 526.802 257.516 519.794L253.411 515.553L249.185 519.645C249.864 520.356 250.545 521.066 251.226 521.775C251.908 522.484 252.591 523.192 253.275 523.898C260.104 530.953 267.047 537.896 274.102 544.725C274.809 545.409 275.517 546.092 276.226 546.774C276.934 547.455 277.645 548.136 278.356 548.816ZM237.114 506.762L241.472 502.811L237.507 498.439C230.956 491.215 224.521 483.883 218.206 476.447L214.385 471.949L209.902 475.757C210.534 476.511 211.167 477.264 211.801 478.015C212.435 478.767 213.071 479.518 213.707 480.268C220.064 487.753 226.541 495.132 233.135 502.404C233.796 503.132 234.458 503.86 235.121 504.586C235.784 505.313 236.449 506.038 237.114 506.762ZM198.697 462.119L203.302 458.459L199.63 453.839C193.563 446.204 187.618 438.468 181.798 430.633L178.278 425.896L173.556 429.404C174.138 430.197 174.72 430.989 175.304 431.781C175.888 432.572 176.474 433.363 177.06 434.153C182.918 442.039 188.903 449.826 195.01 457.511C195.622 458.281 196.235 459.05 196.85 459.818C197.464 460.586 198.08 461.353 198.697 462.119ZM163.265 415.067L168.099 411.715L164.736 406.865C159.182 398.855 153.755 390.75 148.459 382.553L145.256 377.596L140.315 380.788C140.844 381.617 141.374 382.446 141.905 383.274C142.436 384.102 142.968 384.929 143.502 385.755C148.833 394.007 154.295 402.165 159.886 410.228C160.447 411.036 161.008 411.844 161.571 412.65C162.135 413.457 162.699 414.262 163.265 415.067ZM130.976 365.801L136.019 362.772L132.98 357.713C127.963 349.359 123.078 340.917 118.328 332.389L115.457 327.233L110.318 330.095C110.791 330.957 111.265 331.819 111.741 332.68C112.217 333.541 112.694 334.401 113.172 335.26C117.953 343.845 122.87 352.343 127.921 360.752C128.428 361.595 128.935 362.437 129.445 363.279C129.954 364.12 130.465 364.961 130.976 365.801ZM101.986 314.54L107.216 311.848L104.516 306.601C100.056 297.935 95.7329 289.188 91.5506 280.36L89.0237 275.027L83.708 277.545C84.1233 278.437 84.5401 279.328 84.9582 280.218C85.3765 281.109 85.7962 281.998 86.2173 282.887C90.4273 291.773 94.7786 300.579 99.2683 309.302C99.7185 310.176 100.17 311.05 100.623 311.923C101.076 312.796 101.53 313.669 101.986 314.54ZM76.4144 261.474L81.8101 259.131L79.46 253.718C75.5827 244.787 71.847 235.779 68.2557 226.7L66.0851 221.212L60.6152 223.375C60.971 224.292 61.3282 225.209 61.6869 226.124C62.0457 227.04 62.406 227.956 62.7677 228.87C66.3829 238.01 70.1434 247.077 74.0464 256.068C74.4382 256.97 74.8313 257.872 75.2259 258.773C75.6207 259.674 76.0168 260.574 76.4144 261.474ZM54.3904 206.845L59.9286 204.863L57.9402 199.307C54.6597 190.14 51.5247 180.904 48.5379 171.601L46.7338 165.982L41.1332 167.78C41.4278 168.719 41.7238 169.657 42.0214 170.594C42.319 171.532 42.6182 172.469 42.9188 173.405C45.9255 182.77 49.0813 192.067 52.3836 201.295C52.7151 202.221 53.048 203.147 53.3825 204.072C53.717 204.997 54.053 205.921 54.3904 206.845ZM36.0191 150.901L41.6759 149.288L40.058 143.613C37.3881 134.247 34.8671 124.819 32.4977 115.33L31.0679 109.605L25.361 111.03C25.593 111.986 25.8266 112.941 26.0617 113.896C26.2969 114.852 26.5336 115.806 26.7719 116.76C29.157 126.312 31.6948 135.803 34.3824 145.231C34.6521 146.177 34.9234 147.122 35.1961 148.067C35.4689 149.012 35.7433 149.957 36.0191 150.901ZM21.3683 93.8407L27.119 92.6044L25.8786 86.8346C23.8347 77.3279 21.942 67.765 20.203 58.1484L19.1529 52.341L13.3645 53.3876C13.5332 54.357 13.7035 55.3258 13.8753 56.294C14.0472 57.2628 14.2206 58.231 14.3956 59.1986C16.146 68.8788 18.0513 78.5052 20.1088 88.075C20.3156 89.0369 20.5239 89.9982 20.7338 90.9588C20.9437 91.92 21.1552 92.8807 21.3683 93.8407ZM10.5052 35.9429L16.3248 35.0868L15.466 29.248C14.0513 19.6308 12.7897 9.96355 11.6839 0.249055L11.0163 -5.6147L5.17175 -4.94934C5.27664 -3.97102 5.3831 -2.99323 5.49112 -2.01587C5.59921 -1.03791 5.70887 -0.0604229 5.82009 0.91658C6.93327 10.6951 8.20314 20.426 9.62715 30.1068C9.77033 31.0802 9.91508 32.0533 10.0614 33.0256C10.2078 33.9985 10.3557 34.971 10.5052 35.9429ZM3.46293 -22.5017L9.32615 -22.9763L8.84993 -28.8588C8.06418 -38.5646 7.43342 -48.3144 6.96014 -58.1056L6.6752 -64.0004L0.799539 -63.7163C0.84068 -62.7332 0.883397 -61.7506 0.92769 -60.7683C0.972011 -59.7853 1.01791 -58.8028 1.06538 -57.8207C1.54175 -47.9656 2.17664 -38.152 2.96754 -28.3825C3.04693 -27.4018 3.1279 -26.4215 3.21044 -25.4417C3.29303 -24.4612 3.37719 -23.4813 3.46293 -22.5017ZM0.233028 -81.3148L6.11489 -81.4096L6.01986 -87.3104C5.94115 -92.1975 5.90164 -97.0941 5.90164 -102C5.90164 -106.906 5.94115 -111.802 6.01986 -116.69L6.11489 -122.59L0.233028 -122.685C0.210859 -121.702 0.190266 -120.719 0.171252 -119.735C0.152251 -118.752 0.134827 -117.768 0.118982 -116.785C0.0397618 -111.866 0 -106.938 0 -102C0 -97.0624 0.0397618 -92.1341 0.118982 -87.2154C0.134827 -86.2315 0.152251 -85.2481 0.171252 -84.265C0.190266 -83.2813 0.210859 -82.2978 0.233028 -81.3148ZM0.799542 -140.284L6.67521 -140L6.96014 -145.894C7.43343 -155.686 8.06418 -165.435 8.84993 -175.141L9.32615 -181.024L3.46292 -181.498C3.37719 -180.519 3.29303 -179.539 3.21044 -178.558C3.1279 -177.578 3.04693 -176.598 2.96754 -175.617C2.17664 -165.848 1.54175 -156.034 1.06539 -146.179C1.01791 -145.197 0.972013 -144.215 0.927691 -143.232C0.883399 -142.249 0.840682 -141.267 0.799542 -140.284ZM5.17174 -199.051L11.0163 -198.385L11.6838 -204.249C12.7897 -213.963 14.0513 -223.631 15.4659 -233.248L16.3248 -239.087L10.5052 -239.943C10.3557 -238.971 10.2077 -237.998 10.0614 -237.025C9.91507 -236.053 9.77033 -235.08 9.62714 -234.107C8.20313 -224.426 6.93325 -214.695 5.82008 -204.916C5.70886 -203.939 5.59921 -202.962 5.49112 -201.984C5.38309 -201.007 5.27663 -200.029 5.17174 -199.051ZM13.3645 -257.387L19.1528 -256.341L20.203 -262.148C21.9419 -271.765 23.8347 -281.328 25.8785 -290.834L27.119 -296.604L21.3682 -297.84C21.1552 -296.88 20.9437 -295.92 20.7337 -294.959C20.5238 -293.998 20.3155 -293.037 20.1087 -292.075C18.0513 -282.505 16.146 -272.879 14.3955 -263.198C14.2205 -262.231 14.0471 -261.262 13.8752 -260.294C13.7034 -259.326 13.5332 -258.357 13.3645 -257.387ZM25.3609 -315.029L31.0678 -313.604L32.4976 -319.33C34.867 -328.819 37.388 -338.247 40.0579 -347.613L41.6758 -353.288L36.019 -354.901C35.7432 -353.957 35.4688 -353.012 35.196 -352.067C34.9233 -351.122 34.652 -350.177 34.3823 -349.23C31.6947 -339.803 29.1569 -330.311 26.7718 -320.76C26.5335 -319.806 26.2968 -318.851 26.0616 -317.896C25.8265 -316.941 25.5929 -315.986 25.3609 -315.029ZM41.1331 -371.78L46.7337 -369.982L48.5378 -375.601C51.5246 -384.903 54.6596 -394.139 57.94 -403.306L59.9285 -408.863L54.3903 -410.845C54.0528 -409.921 53.7168 -408.996 53.3823 -408.071C53.0479 -407.147 52.715 -406.221 52.3835 -405.295C49.0812 -396.067 45.9254 -386.769 42.9187 -377.405C42.6181 -376.469 42.3189 -375.532 42.0213 -374.594C41.7237 -373.657 41.4277 -372.719 41.1331 -371.78ZM60.6151 -427.375L66.0849 -425.211L68.2556 -430.699C71.8468 -439.779 75.5825 -448.786 79.4598 -457.717L81.8099 -463.131L76.4142 -465.473C76.0167 -464.574 75.6205 -463.674 75.2258 -462.772C74.8312 -461.872 74.438 -460.97 74.0463 -460.068C70.1433 -451.077 66.3827 -442.01 62.7676 -432.87C62.4059 -431.955 62.0456 -431.04 61.6868 -430.124C61.3281 -429.208 60.9709 -428.292 60.6151 -427.375ZM83.7078 -481.545L89.0235 -479.026L91.5504 -484.36C95.7327 -493.187 100.055 -501.935 104.515 -510.6L107.216 -515.848L101.986 -518.54C101.53 -517.668 101.076 -516.796 100.623 -515.923C100.17 -515.05 99.7183 -514.176 99.2681 -513.301C94.7784 -504.578 90.4271 -495.772 86.2171 -486.887C85.796 -485.998 85.3763 -485.108 84.958 -484.218C84.5399 -483.328 84.1231 -482.437 83.7078 -481.545ZM110.318 -534.095L115.457 -531.233L118.328 -536.389C123.078 -544.917 127.963 -553.359 132.98 -561.713L136.019 -566.772L130.976 -569.801C130.464 -568.961 129.954 -568.12 129.445 -567.278C128.935 -566.437 128.427 -565.595 127.921 -564.751C122.87 -556.343 117.953 -547.844 113.172 -539.26C112.694 -538.401 112.216 -537.541 111.741 -536.68C111.265 -535.819 110.791 -534.957 110.318 -534.095ZM140.315 -584.787L145.256 -581.595L148.459 -586.552C153.755 -594.75 159.182 -602.855 164.736 -610.865L168.099 -615.715L163.265 -619.066C162.699 -618.262 162.134 -617.456 161.571 -616.65C161.008 -615.843 160.446 -615.036 159.886 -614.228C154.295 -606.165 148.833 -598.006 143.502 -589.755C142.968 -588.929 142.436 -588.102 141.904 -587.274C141.373 -586.446 140.844 -585.617 140.315 -584.787ZM173.556 -633.403L178.278 -629.896L181.797 -634.633C187.617 -642.468 193.563 -650.204 199.63 -657.839L203.302 -662.459L198.697 -666.119C198.08 -665.353 197.464 -664.586 196.849 -663.818C196.235 -663.05 195.622 -662.281 195.01 -661.511C188.903 -653.826 182.918 -646.039 177.06 -638.152C176.473 -637.363 175.888 -636.572 175.304 -635.781C174.72 -634.989 174.138 -634.197 173.556 -633.403ZM209.902 -679.757L214.385 -675.949L218.206 -680.447C224.521 -687.883 230.956 -695.215 237.507 -702.439L241.471 -706.81L237.114 -710.762C236.448 -710.038 235.784 -709.312 235.121 -708.586C234.458 -707.859 233.796 -707.132 233.135 -706.403C226.541 -699.132 220.064 -691.752 213.707 -684.267C213.071 -683.518 212.435 -682.767 211.801 -682.015C211.167 -681.263 210.533 -680.51 209.902 -679.757ZM249.184 -723.644L253.411 -719.553L257.516 -723.793C264.3 -730.802 271.198 -737.7 278.206 -744.484L282.447 -748.589L278.356 -752.816C277.644 -752.136 276.934 -751.455 276.225 -750.774C275.516 -750.092 274.809 -749.409 274.102 -748.725C267.047 -741.896 260.104 -734.953 253.275 -727.898C252.591 -727.191 251.908 -726.483 251.226 -725.774C250.544 -725.066 249.864 -724.355 249.184 -723.644ZM291.238 -764.886L295.189 -760.528L299.561 -764.493C306.785 -771.044 314.117 -777.479 321.553 -783.794L326.051 -787.615L322.243 -792.098C321.489 -791.466 320.736 -790.833 319.985 -790.199C319.233 -789.565 318.482 -788.929 317.732 -788.293C310.247 -781.936 302.868 -775.459 295.596 -768.865C294.868 -768.204 294.14 -767.542 293.414 -766.879C292.687 -766.216 291.962 -765.551 291.238 -764.886ZM335.881 -803.303L339.541 -798.698L344.161 -802.37C351.796 -808.437 359.532 -814.382 367.367 -820.202L372.104 -823.722L368.596 -828.444C367.803 -827.862 367.011 -827.28 366.219 -826.696C365.428 -826.112 364.637 -825.526 363.847 -824.94C355.961 -819.082 348.174 -813.097 340.489 -806.99C339.719 -806.378 338.95 -805.765 338.182 -805.15C337.414 -804.536 336.647 -803.92 335.881 -803.303ZM382.933 -838.735L386.285 -833.901L391.135 -837.264C399.145 -842.818 407.25 -848.245 415.447 -853.541L420.405 -856.744L417.212 -861.685C416.383 -861.156 415.554 -860.626 414.726 -860.095C413.898 -859.564 413.071 -859.032 412.245 -858.498C403.993 -853.167 395.835 -847.705 387.772 -842.114C386.964 -841.553 386.156 -840.992 385.35 -840.429C384.543 -839.865 383.738 -839.301 382.933 -838.735ZM432.199 -871.023L435.228 -865.981L440.287 -869.02C448.641 -874.037 457.083 -878.922 465.611 -883.672L470.767 -886.543L467.905 -891.682C467.043 -891.209 466.181 -890.735 465.32 -890.259C464.459 -889.783 463.599 -889.306 462.74 -888.828C454.155 -884.047 445.657 -879.13 437.248 -874.079C436.405 -873.572 435.563 -873.065 434.721 -872.555C433.88 -872.046 433.039 -871.535 432.199 -871.023ZM483.46 -900.014L486.152 -894.784L491.399 -897.484C500.065 -901.944 508.813 -906.267 517.64 -910.449L522.973 -912.976L520.454 -918.292C519.563 -917.877 518.672 -917.46 517.782 -917.042C516.891 -916.623 516.002 -916.204 515.113 -915.783C506.227 -911.573 497.421 -907.221 488.698 -902.732C487.824 -902.282 486.95 -901.83 486.077 -901.377C485.204 -900.924 484.331 -900.47 483.46 -900.014ZM536.526 -925.586L538.869 -920.19L544.282 -922.54C553.214 -926.417 562.221 -930.153 571.301 -933.744L576.788 -935.915L574.625 -941.385C573.708 -941.029 572.791 -940.672 571.876 -940.313C570.96 -939.954 570.044 -939.594 569.13 -939.232C559.99 -935.617 550.923 -931.857 541.932 -927.954C541.03 -927.562 540.128 -927.169 539.227 -926.774C538.326 -926.379 537.426 -925.983 536.526 -925.586ZM591.155 -947.61L593.137 -942.071L598.693 -944.06C607.86 -947.34 617.096 -950.475 626.399 -953.462L632.018 -955.266L630.22 -960.867C629.281 -960.572 628.343 -960.276 627.406 -959.979C626.468 -959.681 625.531 -959.382 624.595 -959.081C615.23 -956.075 605.933 -952.919 596.705 -949.616C595.779 -949.285 594.853 -948.952 593.928 -948.618C593.003 -948.283 592.079 -947.947 591.155 -947.61ZM647.099 -965.981L648.712 -960.324L654.387 -961.942C663.753 -964.612 673.181 -967.133 682.67 -969.502L688.395 -970.932L686.97 -976.639C686.014 -976.407 685.059 -976.173 684.104 -975.938C683.149 -975.703 682.194 -975.466 681.24 -975.228C671.688 -972.843 662.197 -970.305 652.769 -967.618C651.823 -967.348 650.878 -967.077 649.933 -966.804C648.988 -966.531 648.043 -966.257 647.099 -965.981ZM704.159 -980.632L705.396 -974.881L711.165 -976.121C720.672 -978.165 730.235 -980.058 739.852 -981.797L745.659 -982.847L744.612 -988.635C743.643 -988.467 742.674 -988.297 741.706 -988.125C740.737 -987.953 739.769 -987.779 738.801 -987.604C729.121 -985.854 719.495 -983.949 709.925 -981.891C708.963 -981.684 708.002 -981.476 707.041 -981.266C706.08 -981.056 705.119 -980.845 704.159 -980.632ZM762.057 -991.495L762.913 -985.675L768.752 -986.534C778.369 -987.949 788.036 -989.21 797.751 -990.316L803.615 -990.984L802.949 -996.828C801.971 -996.723 800.993 -996.617 800.016 -996.509C799.038 -996.401 798.06 -996.291 797.083 -996.18C787.305 -995.067 777.574 -993.797 767.893 -992.373C766.92 -992.23 765.947 -992.085 764.974 -991.939C764.002 -991.792 763.029 -991.644 762.057 -991.495ZM820.502 -998.537L820.976 -992.674L826.859 -993.15C836.565 -993.936 846.314 -994.567 856.106 -995.04L862 -995.325L861.716 -1001.2C860.733 -1001.16 859.751 -1001.12 858.768 -1001.07C857.785 -1001.03 856.803 -1000.98 855.821 -1000.93C845.966 -1000.46 836.152 -999.823 826.383 -999.032C825.402 -998.953 824.422 -998.872 823.442 -998.79C822.461 -998.707 821.481 -998.623 820.502 -998.537ZM879.315 -1001.77L879.41 -995.885L885.31 -995.98C890.198 -996.059 895.094 -996.098 900 -996.098C904.906 -996.098 909.803 -996.059 914.69 -995.98L920.59 -995.885L920.685 -1001.77C919.702 -1001.79 918.719 -1001.81 917.735 -1001.83C916.752 -1001.85 915.768 -1001.87 914.785 -1001.88C909.866 -1001.96 904.938 -1002 900 -1002C895.062 -1002 890.134 -1001.96 885.215 -1001.88C884.232 -1001.87 883.248 -1001.85 882.265 -1001.83C881.281 -1001.81 880.298 -1001.79 879.315 -1001.77ZM938.284 -1001.2L938 -995.325L943.894 -995.04C953.686 -994.567 963.435 -993.936 973.141 -993.15L979.024 -992.674L979.498 -998.537C978.519 -998.623 977.539 -998.707 976.558 -998.79C975.578 -998.872 974.598 -998.953 973.617 -999.032C963.848 -999.823 954.035 -1000.46 944.179 -1000.93C943.197 -1000.98 942.215 -1001.03 941.232 -1001.07C940.249 -1001.12 939.267 -1001.16 938.284 -1001.2ZM997.051 -996.828L996.385 -990.984L1002.25 -990.316C1011.96 -989.21 1021.63 -987.949 1031.25 -986.534L1037.09 -985.675L1037.94 -991.495C1036.97 -991.644 1036 -991.792 1035.03 -991.939C1034.05 -992.085 1033.08 -992.23 1032.11 -992.373C1022.43 -993.797 1012.7 -995.067 1002.92 -996.18C1001.94 -996.291 1000.96 -996.401 999.984 -996.509C999.007 -996.617 998.029 -996.723 997.051 -996.828ZM1055.39 -988.636L1054.34 -982.847L1060.15 -981.797C1069.76 -980.058 1079.33 -978.165 1088.83 -976.121L1094.6 -974.881L1095.84 -980.632C1094.88 -980.845 1093.92 -981.056 1092.96 -981.266C1092 -981.476 1091.04 -981.684 1090.07 -981.891C1080.5 -983.949 1070.88 -985.854 1061.2 -987.604C1060.23 -987.779 1059.26 -987.953 1058.29 -988.125C1057.33 -988.297 1056.36 -988.467 1055.39 -988.636ZM1113.03 -976.639L1111.6 -970.932L1117.33 -969.502C1126.82 -967.133 1136.25 -964.612 1145.61 -961.942L1151.29 -960.324L1152.9 -965.981C1151.96 -966.257 1151.01 -966.531 1150.07 -966.804C1149.12 -967.077 1148.18 -967.348 1147.23 -967.618C1137.8 -970.305 1128.31 -972.843 1118.76 -975.228C1117.81 -975.466 1116.85 -975.703 1115.9 -975.938C1114.94 -976.173 1113.99 -976.407 1113.03 -976.639ZM1169.78 -960.867L1167.98 -955.266L1173.6 -953.462C1182.9 -950.475 1192.14 -947.34 1201.31 -944.06L1206.86 -942.071L1208.84 -947.61C1207.92 -947.947 1207 -948.283 1206.07 -948.618C1205.15 -948.952 1204.22 -949.285 1203.29 -949.617C1194.07 -952.919 1184.77 -956.075 1175.41 -959.081C1174.47 -959.382 1173.53 -959.681 1172.59 -959.979C1171.66 -960.276 1170.72 -960.572 1169.78 -960.867ZM1225.37 -941.385L1223.21 -935.915L1228.7 -933.744C1237.78 -930.153 1246.79 -926.417 1255.72 -922.54L1261.13 -920.19L1263.47 -925.586C1262.57 -925.983 1261.67 -926.379 1260.77 -926.774C1259.87 -927.169 1258.97 -927.562 1258.07 -927.954C1249.08 -931.857 1240.01 -935.617 1230.87 -939.232C1229.96 -939.594 1229.04 -939.954 1228.12 -940.313C1227.21 -940.672 1226.29 -941.029 1225.37 -941.385ZM1279.55 -918.292L1277.03 -912.977L1282.36 -910.45C1291.19 -906.267 1299.93 -901.945 1308.6 -897.485L1313.85 -894.784L1316.54 -900.014C1315.67 -900.47 1314.8 -900.924 1313.92 -901.377C1313.05 -901.83 1312.18 -902.282 1311.3 -902.732C1302.58 -907.222 1293.77 -911.573 1284.89 -915.783C1284 -916.204 1283.11 -916.624 1282.22 -917.042C1281.33 -917.46 1280.44 -917.877 1279.55 -918.292ZM1332.09 -891.682L1329.23 -886.543L1334.39 -883.672C1342.92 -878.922 1351.36 -874.037 1359.71 -869.02L1364.77 -865.981L1367.8 -871.024C1366.96 -871.536 1366.12 -872.046 1365.28 -872.556C1364.44 -873.065 1363.59 -873.573 1362.75 -874.079C1354.34 -879.13 1345.84 -884.047 1337.26 -888.828C1336.4 -889.306 1335.54 -889.784 1334.68 -890.259C1333.82 -890.735 1332.96 -891.209 1332.09 -891.682ZM1382.79 -861.685L1379.6 -856.744L1384.55 -853.541C1392.75 -848.245 1400.85 -842.818 1408.86 -837.264L1413.71 -833.901L1417.07 -838.735C1416.26 -839.301 1415.46 -839.866 1414.65 -840.429C1413.84 -840.992 1413.04 -841.554 1412.23 -842.114C1404.16 -847.705 1396.01 -853.167 1387.75 -858.498C1386.93 -859.032 1386.1 -859.564 1385.27 -860.096C1384.45 -860.627 1383.62 -861.156 1382.79 -861.685ZM1431.4 -828.444L1427.9 -823.722L1432.63 -820.203C1440.47 -814.383 1448.2 -808.437 1455.84 -802.37L1460.46 -798.698L1464.12 -803.303C1463.35 -803.92 1462.59 -804.536 1461.82 -805.151C1461.05 -805.765 1460.28 -806.378 1459.51 -806.99C1451.83 -813.097 1444.04 -819.082 1436.15 -824.94C1435.36 -825.527 1434.57 -826.112 1433.78 -826.696C1432.99 -827.28 1432.2 -827.862 1431.4 -828.444ZM1477.76 -792.098L1473.95 -787.615L1478.45 -783.794C1485.88 -777.479 1493.21 -771.044 1500.44 -764.493L1504.81 -760.529L1508.76 -764.886C1508.04 -765.552 1507.31 -766.216 1506.59 -766.879C1505.86 -767.542 1505.13 -768.204 1504.4 -768.865C1497.13 -775.459 1489.75 -781.936 1482.27 -788.293C1481.52 -788.929 1480.77 -789.565 1480.02 -790.199C1479.26 -790.833 1478.51 -791.467 1477.76 -792.098ZM1521.64 -752.816L1517.55 -748.589L1521.79 -744.484C1528.8 -737.7 1535.7 -730.802 1542.48 -723.794L1546.59 -719.553L1550.82 -723.644C1550.14 -724.356 1549.46 -725.066 1548.77 -725.775C1548.09 -726.484 1547.41 -727.191 1546.72 -727.898C1539.9 -734.953 1532.95 -741.896 1525.9 -748.725C1525.19 -749.409 1524.48 -750.092 1523.77 -750.774C1523.07 -751.456 1522.36 -752.136 1521.64 -752.816ZM1562.89 -710.762L1558.53 -706.811L1562.49 -702.439C1569.04 -695.215 1575.48 -687.883 1581.79 -680.447L1585.61 -675.949L1590.1 -679.757C1589.47 -680.511 1588.83 -681.264 1588.2 -682.015C1587.56 -682.767 1586.93 -683.518 1586.29 -684.268C1579.94 -691.753 1573.46 -699.132 1566.86 -706.404C1566.2 -707.132 1565.54 -707.86 1564.88 -708.586C1564.22 -709.313 1563.55 -710.038 1562.89 -710.762ZM1601.3 -666.119L1596.7 -662.459L1600.37 -657.839C1606.44 -650.204 1612.38 -642.468 1618.2 -634.633L1621.72 -629.896L1626.44 -633.404C1625.86 -634.197 1625.28 -634.989 1624.7 -635.781C1624.11 -636.572 1623.53 -637.363 1622.94 -638.153C1617.08 -646.039 1611.1 -653.826 1604.99 -661.511C1604.38 -662.281 1603.76 -663.05 1603.15 -663.818C1602.54 -664.586 1601.92 -665.353 1601.3 -666.119ZM1636.74 -619.067L1631.9 -615.715L1635.26 -610.865C1640.82 -602.855 1646.24 -594.75 1651.54 -586.553L1654.74 -581.595L1659.68 -584.788C1659.16 -585.617 1658.63 -586.446 1658.1 -587.274C1657.56 -588.102 1657.03 -588.929 1656.5 -589.755C1651.17 -598.007 1645.7 -606.165 1640.11 -614.228C1639.55 -615.036 1638.99 -615.844 1638.43 -616.65C1637.87 -617.457 1637.3 -618.262 1636.74 -619.067ZM1669.02 -569.801L1663.98 -566.772L1667.02 -561.713C1672.04 -553.359 1676.92 -544.917 1681.67 -536.389L1684.54 -531.233L1689.68 -534.095C1689.21 -534.957 1688.73 -535.819 1688.26 -536.68C1687.78 -537.541 1687.31 -538.401 1686.83 -539.26C1682.05 -547.845 1677.13 -556.343 1672.08 -564.752C1671.57 -565.595 1671.06 -566.437 1670.56 -567.279C1670.05 -568.12 1669.54 -568.961 1669.02 -569.801ZM1698.01 -518.54L1692.78 -515.848L1695.48 -510.601C1699.94 -501.935 1704.27 -493.187 1708.45 -484.36L1710.98 -479.027L1716.29 -481.546C1715.88 -482.437 1715.46 -483.328 1715.04 -484.218C1714.62 -485.109 1714.2 -485.998 1713.78 -486.887C1709.57 -495.773 1705.22 -504.579 1700.73 -513.302C1700.28 -514.176 1699.83 -515.05 1699.38 -515.923C1698.92 -516.796 1698.47 -517.669 1698.01 -518.54ZM1723.59 -465.474L1718.19 -463.131L1720.54 -457.718C1724.42 -448.786 1728.15 -439.779 1731.74 -430.699L1733.91 -425.212L1739.38 -427.375C1739.03 -428.292 1738.67 -429.209 1738.31 -430.124C1737.95 -431.04 1737.59 -431.956 1737.23 -432.87C1733.62 -442.01 1729.86 -451.077 1725.95 -460.068C1725.56 -460.97 1725.17 -461.872 1724.77 -462.773C1724.38 -463.674 1723.98 -464.574 1723.59 -465.474ZM1745.61 -410.845L1740.07 -408.863L1742.06 -403.307C1745.34 -394.14 1748.48 -384.904 1751.46 -375.601L1753.27 -369.982L1758.87 -371.78C1758.57 -372.719 1758.28 -373.657 1757.98 -374.594C1757.68 -375.532 1757.38 -376.469 1757.08 -377.405C1754.07 -386.77 1750.92 -396.067 1747.62 -405.295C1747.28 -406.221 1746.95 -407.147 1746.62 -408.072C1746.28 -408.997 1745.95 -409.921 1745.61 -410.845ZM1763.98 -354.901L1758.32 -353.288L1759.94 -347.613C1762.61 -338.247 1765.13 -328.819 1767.5 -319.33L1768.93 -313.605L1774.64 -315.03C1774.41 -315.986 1774.17 -316.941 1773.94 -317.896C1773.7 -318.851 1773.47 -319.806 1773.23 -320.76C1770.84 -330.312 1768.31 -339.803 1765.62 -349.231C1765.35 -350.177 1765.08 -351.122 1764.8 -352.067C1764.53 -353.012 1764.26 -353.957 1763.98 -354.901ZM1778.63 -297.841L1772.88 -296.604L1774.12 -290.835C1776.17 -281.328 1778.06 -271.765 1779.8 -262.148L1780.85 -256.341L1786.64 -257.388C1786.47 -258.357 1786.3 -259.326 1786.12 -260.294C1785.95 -261.263 1785.78 -262.231 1785.6 -263.199C1783.85 -272.879 1781.95 -282.505 1779.89 -292.075C1779.68 -293.037 1779.48 -293.998 1779.27 -294.959C1779.06 -295.92 1778.84 -296.881 1778.63 -297.841ZM1789.49 -239.943L1783.68 -239.087L1784.53 -233.248C1785.95 -223.631 1787.21 -213.964 1788.32 -204.249L1788.98 -198.385L1794.83 -199.051C1794.72 -200.029 1794.62 -201.007 1794.51 -201.984C1794.4 -202.962 1794.29 -203.94 1794.18 -204.917C1793.07 -214.695 1791.8 -224.426 1790.37 -234.107C1790.23 -235.08 1790.08 -236.053 1789.94 -237.026C1789.79 -237.998 1789.64 -238.971 1789.49 -239.943ZM1796.54 -181.498L1790.67 -181.024L1791.15 -175.141C1791.94 -165.435 1792.57 -155.686 1793.04 -145.894L1793.32 -140L1799.2 -140.284C1799.16 -141.267 1799.12 -142.249 1799.07 -143.232C1799.03 -144.215 1798.98 -145.197 1798.93 -146.179C1798.46 -156.034 1797.82 -165.848 1797.03 -175.617C1796.95 -176.598 1796.87 -177.578 1796.79 -178.558C1796.71 -179.539 1796.62 -180.519 1796.54 -181.498Z"/>
</g>
<defs>
<clipPath id="clip0_1970_55">
<rect width="1800" height="800" fill="white"/>
</clipPath>
</defs>
</svg>
