<svg xmlns="http://www.w3.org/2000/svg" xmlns:xlink="http://www.w3.org/1999/xlink" viewBox="-295 383 20 28"><defs><path id="a" d="M-280.2 396l-6.5-7.7c-.1-.1-.2-.2-.3-.2-.1 0-.2.1-.3.2l-.7.8c-.1.1-.2.2-.2.4s.1.3.2.4l5.5 6.5-5.5 6.5c-.1.1-.2.2-.2.4 0 .1.1.3.2.4l.7.8c.1.1.2.2.3.2.1 0 .2-.1.3-.2l6.5-7.7c.1-.1.2-.2.2-.4 0-.1-.1-.3-.2-.4l-4.2.7"/></defs><use xlink:href="#a" overflow="visible" fill-rule="evenodd" clip-rule="evenodd" fill="#FFF"/><clipPath id="b"><use xlink:href="#a" overflow="visible"/></clipPath><path d="M-293.1 383.1h18.1v26.5h-18.1z" clip-path="url(#b)" fill="#fff"/></svg>