<svg width="18" height="18" viewBox="0 0 18 18" fill="none" xmlns="http://www.w3.org/2000/svg">
<path d="M9.00313 4.50781C6.44777 4.50781 4.38661 6.51172 4.38661 8.99609C4.38661 11.4805 6.44777 13.4844 9.00313 13.4844C11.5585 13.4844 13.6196 11.4805 13.6196 8.99609C13.6196 6.51172 11.5585 4.50781 9.00313 4.50781ZM9.00313 11.9141C7.35179 11.9141 6.00179 10.6055 6.00179 8.99609C6.00179 7.38672 7.34777 6.07812 9.00313 6.07812C10.6585 6.07812 12.0045 7.38672 12.0045 8.99609C12.0045 10.6055 10.6545 11.9141 9.00313 11.9141ZM14.8853 4.32422C14.8853 4.90625 14.4031 5.37109 13.8085 5.37109C13.2098 5.37109 12.7317 4.90234 12.7317 4.32422C12.7317 3.74609 13.2138 3.27734 13.8085 3.27734C14.4031 3.27734 14.8853 3.74609 14.8853 4.32422ZM17.9429 5.38672C17.8746 3.98437 17.5451 2.74219 16.4884 1.71875C15.4357 0.695312 14.158 0.375 12.7156 0.304687C11.229 0.222656 6.77321 0.222656 5.28661 0.304687C3.84821 0.371094 2.57054 0.691406 1.51384 1.71484C0.457143 2.73828 0.131696 3.98047 0.059375 5.38281C-0.025 6.82812 -0.025 11.1602 0.059375 12.6055C0.127679 14.0078 0.457143 15.25 1.51384 16.2734C2.57054 17.2969 3.8442 17.6172 5.28661 17.6875C6.77321 17.7695 11.229 17.7695 12.7156 17.6875C14.158 17.6211 15.4357 17.3008 16.4884 16.2734C17.5411 15.25 17.8705 14.0078 17.9429 12.6055C18.0272 11.1602 18.0272 6.83203 17.9429 5.38672ZM16.0223 14.1562C15.7089 14.9219 15.1022 15.5117 14.3107 15.8203C13.1254 16.2773 10.3129 16.1719 9.00313 16.1719C7.6933 16.1719 4.87679 16.2734 3.69554 15.8203C2.90804 15.5156 2.30134 14.9258 1.98393 14.1562C1.51384 13.0039 1.62232 10.2695 1.62232 8.99609C1.62232 7.72266 1.51786 4.98437 1.98393 3.83594C2.29732 3.07031 2.90402 2.48047 3.69554 2.17187C4.8808 1.71484 7.6933 1.82031 9.00313 1.82031C10.3129 1.82031 13.1295 1.71875 14.3107 2.17187C15.0982 2.47656 15.7049 3.06641 16.0223 3.83594C16.4924 4.98828 16.3839 7.72266 16.3839 8.99609C16.3839 10.2695 16.4924 13.0078 16.0223 14.1562Z" fill="#EEF7FA"/>
</svg>
