<svg width="20" height="20" viewBox="0 0 20 20" fill="none" xmlns="http://www.w3.org/2000/svg">
<path d="M4.47679 19.9996H0.330357V6.64687H4.47679V19.9996ZM2.40134 4.82545C1.07545 4.82545 0 3.72723 0 2.40134C9.49017e-09 1.76446 0.252998 1.15367 0.703336 0.703336C1.15367 0.252998 1.76446 0 2.40134 0C3.03821 0 3.649 0.252998 4.09934 0.703336C4.54968 1.15367 4.80268 1.76446 4.80268 2.40134C4.80268 3.72723 3.72679 4.82545 2.40134 4.82545ZM19.9955 19.9996H15.858V13.4996C15.858 11.9504 15.8268 9.96384 13.7022 9.96384C11.5464 9.96384 11.2161 11.6469 11.2161 13.3879V19.9996H7.07411V6.64687H11.0509V8.4683H11.1089C11.6625 7.4192 13.0147 6.31205 15.0321 6.31205C19.2286 6.31205 20 9.07545 20 12.6647V19.9996H19.9955Z" fill="#EEF7FA"/>
</svg>
