<svg width="19" height="20" viewBox="0 0 19 20" fill="none" xmlns="http://www.w3.org/2000/svg">
<path d="M18.9993 6.56648C18.9993 2.22789 16.1034 0.955769 16.1034 0.955769C13.2615 -0.325276 5.71425 -0.311885 2.89969 0.955769C2.89969 0.955769 0.00332252 2.22789 0.00332252 6.56648C0.00332252 11.7308 -0.296678 18.145 4.8047 19.4707C6.64607 19.9483 8.22835 20.0509 9.50153 19.9795C11.8111 19.8545 13.107 19.1716 13.107 19.1716L13.0297 17.5245C13.0297 17.5245 11.3793 18.0334 9.52426 17.9754C7.68743 17.9129 5.75152 17.779 5.45016 15.565C5.42221 15.3594 5.40855 15.1521 5.40925 14.9446C9.30153 15.8775 12.6206 15.3508 13.5343 15.2437C16.0852 14.9446 18.307 13.4002 18.5902 11.9897C19.0356 9.76686 18.9993 6.56648 18.9993 6.56648ZM15.5847 12.1549H13.4652V7.05747C13.4652 4.83908 10.5561 4.75427 10.5561 7.36546V10.1552H8.45016V7.36501C8.45016 4.75382 5.54106 4.83863 5.54106 7.05703V12.1544H3.41697C3.41697 6.7044 3.1806 5.5528 4.25379 4.34317C5.43106 3.0532 7.88198 2.96839 8.97335 4.61545L9.50062 5.48585L10.0279 4.61545C11.1238 2.95947 13.5788 3.06213 14.7475 4.34317C15.8252 5.56173 15.5838 6.70887 15.5838 12.1544L15.5847 12.1549Z" fill="#EEF7FA"/>
</svg>
