<svg width="22" height="16" viewBox="0 0 22 16" fill="none" xmlns="http://www.w3.org/2000/svg">
<path d="M20.9937 2.84699C20.7538 1.92316 20.047 1.19559 19.1495 0.948672C17.5228 0.5 11 0.5 11 0.5C11 0.5 4.47711 0.5 2.85037 0.948672C1.95291 1.19563 1.24609 1.92316 1.00619 2.84699C0.570312 4.52148 0.570312 8.01516 0.570312 8.01516C0.570312 8.01516 0.570312 11.5088 1.00619 13.1833C1.24609 14.1071 1.95291 14.8044 2.85037 15.0513C4.47711 15.5 11 15.5 11 15.5C11 15.5 17.5228 15.5 19.1495 15.0513C20.047 14.8044 20.7538 14.1071 20.9937 13.1833C21.4296 11.5088 21.4296 8.01516 21.4296 8.01516C21.4296 8.01516 21.4296 4.52148 20.9937 2.84699ZM8.8666 11.1871V4.84316L14.3184 8.01523L8.8666 11.1871Z" fill="#EEF7FA"/>
</svg>
